# xmcd
#
# Track frame offsets: 
#        150
#        19830
#        37991
#        58312
#        73971
#        89619
#        109923
#        125398
#        146571
#        168976
#
# Disc length: 2503 seconds
#
# Revision: 0
# Processed by: cddbd v1.5.2PL0 Copyright (c) Steve Scherf et al.
# Submitted via: ExactAudioCopy v0.99pb5
#
DISCID=9209c50a
DTITLE=Ted Watson - The Potters Vessel
DYEAR=2006
DGENRE=Gospel
TTITLE0=The Potters Vessel
TTITLE1=With All My Heart
TTITLE2=I'll Stand For Him
TTITLE3=Bad Days Are Best
TTITLE4=Mansion Over The Hilltop
TTITLE5=See The Baby
TTITLE6=Blessed Assurance
TTITLE7=More And More
TTITLE8=Have Thine Own Way
TTITLE9=Oh What A Story
EXTD=
EXTT0=
EXTT1=
EXTT2=
EXTT3=
EXTT4=
EXTT5=
EXTT6=
EXTT7=
EXTT8=
EXTT9=
PLAYORDER=
